Coordinates
version=1
nRows=13
nColumns=36
inDegrees=yes

Units are S.I. units (second, meters, Newtons, ...)
If the header above contains a line with 'inDegrees', this indicates whether rotational values are in degrees (yes) or radians (no).

endheader
time	pelvis_tilt	pelvis_list	pelvis_rotation	pelvis_tx	pelvis_ty	pelvis_tz	hip_flexion_r	hip_adduction_r	hip_rotation_r	knee_angle_r	knee_angle_r_beta	ankle_angle_r	subtalar_angle_r	mtp_angle_r	hip_flexion_l	hip_adduction_l	hip_rotation_l	knee_angle_l	knee_angle_l_beta	ankle_angle_l	subtalar_angle_l	mtp_angle_l	lumbar_extension	lumbar_bending	lumbar_rotation	arm_flex_r	arm_add_r	arm_rot_r	elbow_flex_r	pro_sup_r	arm_flex_l	arm_add_l	arm_rot_l	elbow_flex_l	pro_sup_l
      2.79583330	    -15.12868283	      3.48827138	      2.01328453	      0.42550343	      1.31165040	     -0.05739934	     17.36429531	     -9.81654292	    -12.33452179	      5.80117204	      0.10124955	    -35.85192745	     -1.10076660	     -7.49999987	     22.42128993	     -2.96137357	     -6.64981173	     11.57602372	      0.20203973	    -35.88560285	     -3.92555850	     -7.49999987	    -18.18201854	     -2.53365915	      0.97380812	     43.66298936	    -27.04136921	     -5.79795938	     50.14461559	     63.26740649	     54.19574493	    -15.62419592	     14.04294688	     38.99583165	     61.62960089
      2.80000000	    -15.41831642	      3.56546455	      1.85978808	      0.42695013	      1.30402631	     -0.05614822	     17.78716044	    -10.00121036	    -13.02729229	      6.10578323	      0.10656602	    -35.24040269	     -0.71953639	     -7.49999987	     22.63505651	     -2.85546087	     -6.54610415	     11.67610380	      0.20378646	    -35.73320170	     -4.33353101	     -7.49999987	    -17.86095260	     -2.64530540	      0.83591385	     44.77157017	    -27.19231381	     -3.76931737	     49.99557933	     62.94306672	     55.11221790	    -15.94476020	     15.67501946	     38.85353141	     61.41729906
      2.80416670	    -15.66183536	      3.62589704	      1.70566070	      0.42589358	      1.29417578	     -0.05721849	     18.18747941	    -10.08569913	    -13.44245378	      6.40028171	      0.11170599	    -34.77213555	     -0.81103769	     -7.49999987	     22.84295935	     -2.77728596	     -6.51934039	     11.73825761	      0.20487124	    -35.44564307	     -4.81968215	     -7.49999987	    -17.75934942	     -2.73338214	      0.84083583	     45.74774714	    -27.24987782	     -2.86672407	     50.60621181	     62.90700400	     55.93577239	    -16.01917984	     16.36927737	     39.43037733	     61.24816816
      2.80833330	    -15.91630809	      3.69414792	      1.59184151	      0.42650706	      1.28395533	     -0.05699788	     18.58338089	    -10.16969530	    -13.68391416	      6.55761134	      0.11445191	    -34.31037355	     -1.05790517	     -7.49999987	     23.04688746	     -2.72625490	     -6.63130037	     11.66491400	      0.20359116	    -35.09318866	     -4.94802992	     -7.49999987	    -17.51402404	     -2.90013494	      0.88172853	     46.51040458	    -27.11814258	     -2.79438383	     50.92844010	     62.90567985	     56.68628839	    -15.74066498	     16.39589673	     39.76644057	     61.24406772
      2.81250000	    -16.12156423	      3.77333621	      1.59555793	      0.42608740	      1.27546767	     -0.05415321	     18.98334994	    -10.26461442	    -14.02148572	      6.73047831	      0.11746901	    -33.66472506	     -1.04547992	     -7.49999987	     23.36713409	     -2.67980682	     -6.35060071	     11.67910765	      0.20383888	    -35.22639330	     -5.64674874	     -7.49999987	    -17.52049045	     -3.04698399	      0.78818382	     47.58290791	    -27.49882741	     -0.96478248	     51.22595133	     62.80081674	     57.80582687	    -15.79805125	     17.75700514	     40.16684906	     61.03585590
      2.81666670	    -16.32330139	      3.78673755	      1.55755961	      0.42515471	      1.27366136	     -0.05357020	     19.28596220	    -10.18760021	    -14.16684010	      6.62452794	      0.11561982	    -33.25062295	     -0.83001263	     -7.49999987	     23.53880331	     -2.79070582	     -6.31432589	     11.32536039	      0.19766483	    -35.31328096	     -5.53713898	     -7.49999987	    -17.45667904	     -3.18511662	      0.76819535	     48.38823531	    -27.29546455	     -0.22246841	     51.42689573	     62.54248876	     58.73469461	    -15.68694405	     18.43640294	     40.30081719	     60.66643313
      2.82083330	    -16.54945053	      3.75153678	      1.47001541	      0.42440095	      1.26174612	     -0.05395863	     19.66938644	    -10.06728987	    -14.20299304	      6.59005455	      0.11501815	    -32.77220308	     -0.96261600	     -7.49999987	     23.77078159	     -2.91770475	     -6.24933485	     11.10351766	      0.19379294	    -35.15802369	     -5.51913245	     -7.49999987	    -17.39737163	     -3.29058383	      0.80166878	     49.11613047	    -27.00226645	     -0.07952492	     51.77693206	     62.54659626	     59.59061615	    -15.45554450	     18.47518945	     40.59515637	     60.64996484
      2.82500000	    -16.80012065	      3.77600237	      1.27597909	      0.42485724	      1.24893463	     -0.05371761	     20.13055162	    -10.06442897	    -13.97258206	      6.66005576	      0.11623990	    -32.35304662	     -0.74451596	     -7.49999987	     24.02483720	     -3.01445172	     -5.93174926	     10.82936098	      0.18900801	    -34.97740181	     -5.14215783	     -7.49999987	    -17.24059580	     -3.48389829	      0.77758623	     49.81018906	    -26.62113037	      0.25895659	     52.32414364	     62.53936422	     60.29565833	    -15.29464489	     18.57500122	     40.96995111	     60.60916347
      2.82916670	    -16.76756362	      3.80779721	      1.10477726	      0.42507606	      1.24375424	     -0.05279755	     20.17505398	    -10.06302543	    -13.67122977	      6.63551829	      0.11581164	    -32.09660451	     -0.62417393	     -7.49999987	     23.84548388	     -3.08757134	     -5.64549426	     10.37040973	      0.18099779	    -34.66979143	     -4.75083554	     -7.49999987	    -17.47845085	     -3.45295995	      0.57515109	     50.90533290	    -26.23245874	      1.46966212	     52.77561584	     62.60921568	     61.04439178	    -15.46499140	     18.75071567	     41.36907804	     60.43578949
      2.83333330	    -16.96960718	      3.79999135	      1.08733612	      0.42376103	      1.23219599	     -0.05176211	     20.47768153	    -10.03767982	    -13.40983199	      6.58518574	      0.11493317	    -31.62493050	     -0.44776394	     -7.49999987	     24.02392784	     -3.15443921	     -5.24266791	      9.95806644	      0.17380105	    -34.51114467	     -4.59744970	     -7.49999987	    -17.38752848	     -3.47434980	      0.50208474	     51.83960245	    -26.15672727	      2.55721633	     52.82433936	     62.50621424	     61.82623545	    -15.35467243	     19.43034462	     41.62549510	     60.12724533
      2.83750000	    -17.21185439	      3.77461513	      1.09094313	      0.42298996	      1.22334515	     -0.05290426	     20.81332003	    -10.01632609	    -13.23849467	      6.54940647	      0.11430871	    -31.33658866	     -0.40588120	     -7.49999987	     24.33044985	     -3.24211928	     -4.97677073	      9.74541608	      0.17008960	    -34.19919410	     -4.47229970	     -7.49999987	    -17.30994979	     -3.52684281	      0.46979837	     52.49146153	    -25.83114141	      2.70510817	     53.06062598	     62.51077822	     62.51210885	    -14.90703629	     19.49347879	     41.89662157	     60.10967917
      2.84166670	    -17.47774298	      3.77964061	      1.13553474	      0.42192055	      1.21407855	     -0.05286312	     21.22185919	    -10.04514575	    -12.77288767	      6.66637970	      0.11635027	    -30.92929839	     -0.35881505	     -7.49999987	     24.73799506	     -3.18607320	     -4.65599947	      9.65134275	      0.16844771	    -33.72326255	     -4.27861221	     -7.49999987	    -17.27312715	     -3.46286304	      0.16152598	     53.70162577	    -25.66117947	      4.69774638	     52.84298447	     62.21332063	     63.28273653	    -14.93504529	     20.06290767	     41.81407062	     59.35918091
      2.84583330	    -17.69482053	      3.75755993	      1.26824793	      0.42170215	      1.20663088	     -0.05242197	     21.52890173	    -10.06341118	    -12.32075507	      6.70739767	      0.11706617	    -30.57438418	     -0.30224208	     -7.49999987	     25.07426344	     -3.13516148	     -4.36401607	      9.53233402	      0.16637061	    -33.57287935	     -4.22526888	     -7.49999987	    -17.41158741	     -3.41638691	     -0.12438727	     54.34286243	    -25.21961178	      5.04683158	     53.41478262	     62.15207841	     63.70196693	    -14.77558765	     19.70762408	     42.61781050	     59.15752431
